<svg xmlns="http://www.w3.org/2000/svg" xmlns:se="http://svg-edit.googlecode.com" xmlns:xlink="http://www.w3.org/1999/xlink" xmlns:dc="http://purl.org/dc/elements/1.1/" xmlns:cc="http://creativecommons.org/ns#" xmlns:rdf="http://www.w3.org/1999/02/22-rdf-syntax-ns#" xmlns:inkscape="http://www.inkscape.org/namespaces/inkscape" width="777" height="480">                                    <title>my vector image</title>                                    <!-- Created with Vector Paint - http://www.vectorpaint.yaks.com/ https://chrome.google.com/webstore/detail/hnbpdiengicdefcjecjbnjnoifekhgdo -->                                    <rect id="backgroundrect" width="100%" height="100%" x="0" y="0" fill="#FFFFFF" stroke="none"/>                                <g class="currentLayer" style=""><title>Layer 1</title><polyline fill="none" stroke="#000000" stroke-dashoffset="" fill-rule="nonzero" marker-start="" marker-mid="" marker-end="" id="svg_11" points="169.73096530935814,262.86725180493943 169.73096530935814,262.86725180493943 " style="color: rgb(0, 0, 0);" class=""/><g class="" id="svg_1" fill="#67e7e7" fill-opacity="1"><path fill="#67e7e7" fill-opacity="1" stroke="none" stroke-opacity="1" stroke-width="2" stroke-dasharray="none" stroke-linejoin="round" stroke-linecap="butt" stroke-dashoffset="" fill-rule="nonzero" opacity="1" marker-start="" marker-mid="" marker-end="" d="M100.54869079589844,181.7736792564392 C100.54869079589844,136.741524994044 145.30006774354376,100.2654800415039 200.54868125915527,100.2654800415039 C255.79729477476678,100.2654800415039 300.5486717224121,136.741524994044 300.5486717224121,181.7736792564392 C300.5486717224121,226.80583351883442 255.79729477476678,263.2818784713745 200.54868125915527,263.2818784713745 C145.30006774354376,263.2818784713745 100.54869079589844,226.80583351883442 100.54869079589844,181.7736792564392 z" id="svg_18" class=""/><path fill="#67e7e7" fill-opacity="1" stroke="none" stroke-opacity="1" stroke-width="2" stroke-dasharray="none" stroke-linejoin="round" stroke-linecap="butt" stroke-dashoffset="" fill-rule="nonzero" opacity="1" marker-start="" marker-mid="" marker-end="" id="svg_21" d="M190.36282017806826,180.04689055565032 C159.38937167379143,300.2654739758324 270.00883061763744,293.70809669836785 285.49555486977573,293.70809669836785 " style="color: rgb(0, 0, 0);" class=""/></g><g class="" id="svg_4"><rect fill="#e767e7" stroke-width="2" stroke-linejoin="round" stroke-dashoffset="" fill-rule="nonzero" id="svg_14" x="159.46902465820312" y="130.8141632080078" width="74.53982543945312" height="10.752212524414062" style="color: rgb(0, 0, 0);" class="" fill-opacity="1"/><rect fill="#e767e7" stroke-width="2" stroke-linejoin="round" stroke-dashoffset="" fill-rule="nonzero" x="141.7698974609375" y="166.21240234375" width="74.53982543945312" height="10.752212524414062" style="color: rgb(0, 0, 0);" class="" fill-opacity="1" id="svg_17" transform="rotate(118.36775970458984 179.03997802734375,171.5886535644531) "/><rect fill="#e767e7" stroke-width="2" stroke-linejoin="round" stroke-dashoffset="" fill-rule="nonzero" x="128.64071655273438" y="188.5777130126953" width="38.246402740478516" height="9.175219535827637" style="color: rgb(0, 0, 0);" class="" fill-opacity="1" transform="rotate(-154.1271209716797 147.76409912109372,193.16546630859372) " id="svg_2"/></g><g class="" id="svg_12"><path fill="#abecec" fill-opacity="1" stroke="none" stroke-width="2" stroke-dasharray="none" stroke-linejoin="round" stroke-linecap="butt" stroke-dashoffset="" fill-rule="nonzero" opacity="1" marker-start="" marker-mid="" marker-end="" d="M355.0177001953125,231.49114990234375 C355.0177001953125,131.7673929962664 435.79394328923513,50.99114990234375 535.5177001953125,50.99114990234375 C635.2414571013899,50.99114990234375 716.0177001953125,131.7673929962664 716.0177001953125,231.49114990234375 C716.0177001953125,331.2149068084211 635.2414571013899,411.99114990234375 535.5177001953125,411.99114990234375 C435.79394328923513,411.99114990234375 355.0177001953125,331.2149068084211 355.0177001953125,231.49114990234375 z" id="svg_3" class=""/><path fill="#abecec" fill-opacity="1" stroke="none" stroke-width="2" stroke-dasharray="none" stroke-linejoin="round" stroke-linecap="butt" stroke-dashoffset="" fill-rule="nonzero" opacity="1" marker-start="" marker-mid="" marker-end="" d="M300.0177001953125,186.68584299087524 C300.0177001953125,133.1655757440388 343.36911666525,89.81415927410126 396.8893839120865,89.81415927410126 C450.409651158923,89.81415927410126 493.7610676288605,133.1655757440388 493.7610676288605,186.68584299087524 C493.7610676288605,240.20611023771175 450.409651158923,283.55752670764923 396.8893839120865,283.55752670764923 C343.36911666525,283.55752670764923 300.0177001953125,240.20611023771175 300.0177001953125,186.68584299087524 z" class="" id="svg_5"/><path fill="#000000" stroke="none" stroke-width="1" stroke-dasharray="none" stroke-linejoin="miter" stroke-linecap="butt" stroke-dashoffset="" fill-rule="nonzero" opacity="1" marker-start="" marker-mid="" marker-end="" d="M394,316.5 C394,307.3839779005525 407.6491712707182,300 424.5,300 C441.3508287292818,300 455,307.3839779005525 455,316.5 C455,325.6160220994475 441.3508287292818,333 424.5,333 C407.6491712707182,333 394,325.6160220994475 394,316.5 z" id="svg_10" class="" transform="rotate(19.02628517150879 424.49999999999983,316.50000000000006) " fill-opacity="1"/><g class="" id="svg_6"><path fill="#000000" fill-opacity="1" stroke="none" stroke-opacity="1" stroke-width="1" stroke-dasharray="none" stroke-linejoin="miter" stroke-linecap="butt" stroke-dashoffset="" fill-rule="nonzero" opacity="1" marker-start="" marker-mid="" marker-end="" d="M505,132 C505,114.32044198895028 516.8591160220994,100 531.5,100 C546.1408839779006,100 558,114.32044198895028 558,132 C558,149.67955801104972 546.1408839779006,164 531.5,164 C516.8591160220994,164 505,149.67955801104972 505,132 z" id="svg_19" class=""/><path fill="#ffffff" fill-opacity="1" stroke="#dadada" stroke-opacity="1" stroke-width="1" stroke-dasharray="none" stroke-linejoin="miter" stroke-linecap="butt" stroke-dashoffset="" fill-rule="nonzero" opacity="1" marker-start="" marker-mid="" marker-end="" d="M508,128.5 C508,120.48895027624309 512.2513812154696,114 517.5,114 C522.7486187845304,114 527,120.48895027624309 527,128.5 C527,136.5110497237569 522.7486187845304,143 517.5,143 C512.2513812154696,143 508,136.5110497237569 508,128.5 z" id="svg_22" class=""/></g><polyline fill="none" stroke="#000000" stroke-width="2" stroke-linejoin="round" stroke-dashoffset="" fill-rule="nonzero" marker-start="" marker-mid="" marker-end="" id="svg_8" points="511.89910888671875,95.61061096191406 515.43896484375,95.61061096191406 546.412353515625,82.33628845214844 548.1823120117188,81.45132446289062 549.0672607421875,81.45132446289062 554.3770141601562,85.8760986328125 556.1469116210938,88.53096008300781 557.0318603515625,90.30087280273438 557.9168090820312,91.18583679199219 " style="color: rgb(0, 0, 0);" class=""/></g><polyline fill="none" stroke="#000000" stroke-width="2" stroke-linejoin="round" stroke-dashoffset="" fill-rule="nonzero" marker-start="" marker-mid="" marker-end="" id="svg_9" points="393.2176971435547,186.47787475585938 393.2176971435547,186.47787475585938 " style="color: rgb(0, 0, 0);" class=""/><g class=""><path fill="#e767e7" fill-opacity="1" stroke="none" stroke-width="1" stroke-dasharray="none" stroke-linejoin="miter" stroke-linecap="butt" stroke-dashoffset="" fill-rule="nonzero" opacity="1" marker-start="" marker-mid="" marker-end="" d="M183.3333334326744,194.28642082214355 C183.3333334326744,169.81878500880458 204.26036944804272,150 230.09621638059616,150 C255.9320633131496,150 276.8590993285179,169.81878500880458 276.8590993285179,194.28642082214355 C276.8590993285179,218.75405663548253 255.9320633131496,238.5728416442871 230.09621638059616,238.5728416442871 C204.26036944804272,238.5728416442871 183.3333334326744,218.75405663548253 183.3333334326744,194.28642082214355 z" id="svg_27" class=""/><path fill="#67e7e7" fill-opacity="1" stroke="none" stroke-width="1" stroke-dasharray="none" stroke-linejoin="miter" stroke-linecap="butt" stroke-dashoffset="" fill-rule="nonzero" opacity="1" marker-start="" marker-mid="" marker-end="" d="M215.70446283016173,209.78421547780982 C215.70446283016173,187.56554726707023 230.83688707248197,169.5684260163711 249.51889230991426,169.5684260163711 C268.2008975473466,169.5684260163711 283.33332178966674,187.56554726707023 283.33332178966674,209.78421547780982 C283.33332178966674,232.0028836885495 268.2008975473466,250.00000493924858 249.51889230991426,250.00000493924858 C230.83688707248197,250.00000493924858 215.70446283016173,232.0028836885495 215.70446283016173,209.78421547780982 z" id="svg_29" class=""/></g></g></svg>